<svg viewBox="0 0 512 512" xmlns="http://www.w3.org/2000/svg" xmlns:xlink="http://www.w3.org/1999/xlink"><linearGradient id="a" gradientTransform="matrix(1 0 0 -1 0 -18718)" gradientUnits="userSpaceOnUse" x1="0" x2="512" y1="-18974" y2="-18974"><stop offset="0" stop-color="#00f38d"/><stop offset="1" stop-color="#009eff"/></linearGradient><path d="m512 256c0 141.386719-114.613281 256-256 256s-256-114.613281-256-256 114.613281-256 256-256 256 114.613281 256 256zm0 0" fill="url(#a)"/><path d="m376.414062 118.8125c0-24.160156-19.652343-43.8125-43.8125-43.8125-24.160156 0-43.8125 19.652344-43.8125 43.8125 0 18.894531 12.019532 35.03125 28.8125 41.167969v174.214843c0 44.554688-36.25 80.804688-80.804687 80.804688-44.457031 0-80.636719-36.089844-80.796875-80.507812h49.820312l-79.828124-79.832032v79.535156c0 61.097657 49.707031 110.804688 110.804687 110.804688s110.804687-49.707031 110.804687-110.804688v-174.214843c16.792969-6.136719 28.8125-22.273438 28.8125-41.167969zm-43.8125-13.8125c7.617188 0 13.8125 6.195312 13.8125 13.8125s-6.195312 13.8125-13.8125 13.8125c-7.617187 0-13.8125-6.195312-13.8125-13.8125s6.195313-13.8125 13.8125-13.8125zm0 0" fill="#fff"/></svg>